<?xml version="1.0" encoding="UTF-8" standalone="no"?>
<!DOCTYPE svg PUBLIC "-//W3C//DTD SVG 1.1//EN"
 "http://www.w3.org/Graphics/SVG/1.1/DTD/svg11.dtd">
<!-- Generated by graphviz version 2.28.0 (20111028.1807)
 -->
<!-- Title: G Pages: 1 -->
<svg width="336pt" height="184pt"
 viewBox="0.00 0.00 336.00 184.00" xmlns="http://www.w3.org/2000/svg" xmlns:xlink="http://www.w3.org/1999/xlink">
<g id="graph1" class="graph" transform="scale(1 1) rotate(0) translate(4 180)">
<title>G</title>
<polygon fill="white" stroke="white" points="-4,5 -4,-180 333,-180 333,5 -4,5"/>
<g id="graph2" class="cluster"><title>cluster_</title>
<polyline fill="none" stroke="gray" points="214,-8 308,-8 "/>
<path fill="none" stroke="gray" d="M308,-8C314,-8 320,-14 320,-20"/>
<polyline fill="none" stroke="gray" points="320,-20 320,-156 "/>
<path fill="none" stroke="gray" d="M320,-156C320,-162 314,-168 308,-168"/>
<polyline fill="none" stroke="gray" points="308,-168 214,-168 "/>
<path fill="none" stroke="gray" d="M214,-168C208,-168 202,-162 202,-156"/>
<polyline fill="none" stroke="gray" points="202,-156 202,-20 "/>
<path fill="none" stroke="gray" d="M202,-20C202,-14 208,-8 214,-8"/>
</g>
<!-- \\FunctionChain -->
<g id="node2" class="node"><title>\\FunctionChain</title>
<a xlink:href="inc.html" xlink:title="FunctionChain" target="_parent">
<polygon fill="none" stroke="black" points="311.814,-160 210.186,-160 210.186,-124 311.814,-124 311.814,-160"/>
<text text-anchor="middle" x="261" y="-137.6" font-family="Courier,monospace" font-size="11.00">FunctionChain</text>
</a>
</g>
<!-- \\InlineText -->
<g id="node3" class="node"><title>\\InlineText</title>
<a xlink:href="inc.html" xlink:title="InlineText" target="_parent">
<polygon fill="none" stroke="black" points="302.011,-106 219.989,-106 219.989,-70 302.011,-70 302.011,-106"/>
<text text-anchor="middle" x="261" y="-83.6" font-family="Courier,monospace" font-size="11.00">InlineText</text>
</a>
</g>
<!-- FunctionChain -->
<g id="node6" class="node"><title>FunctionChain</title>
<ellipse fill="none" stroke="black" cx="69" cy="-61" rx="68.3813" ry="18"/>
<text text-anchor="middle" x="69" y="-55.4" font-family="Times,serif" font-size="14.00" fill="gray">FunctionChain</text>
</g>
<!-- \\InlineText&#45;&gt;FunctionChain -->
<g id="edge3" class="edge"><title>\\InlineText&#45;&gt;FunctionChain</title>
<path fill="none" stroke="black" d="M219.706,-82.274C196.524,-78.9797 166.749,-74.7486 139.867,-70.9285"/>
<polygon fill="none" stroke="black" points="140.119,-67.4292 129.726,-69.4874 139.134,-74.3596 140.119,-67.4292"/>
</g>
<!-- \\HtmlDoc -->
<g id="node4" class="node"><title>\\HtmlDoc</title>
<a xlink:href="inc.html" xlink:title="HtmlDoc" target="_parent">
<polygon fill="none" stroke="black" points="292.208,-52 229.792,-52 229.792,-16 292.208,-16 292.208,-52"/>
<text text-anchor="middle" x="261" y="-29.6" font-family="Courier,monospace" font-size="11.00">HtmlDoc</text>
</a>
</g>
<!-- \\HtmlDoc&#45;&gt;FunctionChain -->
<g id="edge5" class="edge"><title>\\HtmlDoc&#45;&gt;FunctionChain</title>
<path fill="none" stroke="black" d="M229.894,-38.2782C205.628,-41.7265 170.542,-46.7125 139.415,-51.1358"/>
<polygon fill="none" stroke="black" points="138.875,-47.6773 129.467,-52.5495 139.86,-54.6076 138.875,-47.6773"/>
</g>
</g>
</svg>
